<svg width="36" height="33" viewBox="0 0 36 33" fill="none" xmlns="http://www.w3.org/2000/svg">
<path d="M25.045 19.2921L25.0093 13.6301C26.7351 14.1552 28.2932 15.132 29.4942 16.4343C28.3094 17.7513 26.7643 18.7459 25.045 19.2921ZM6.77769 16.5687C7.97762 17.8711 9.5357 18.8478 11.2626 19.3729L11.2269 13.711C9.50756 14.256 7.96139 15.2517 6.77769 16.5677V16.5687ZM23.8743 26.0169C24.4369 24.3565 24.5289 22.5584 24.134 20.8444L19.1005 23.7053C20.4476 24.8784 22.1074 25.6798 23.8743 26.0169ZM23.7553 6.91994C21.9927 7.27808 20.3427 8.09939 19.0107 9.28724L24.0799 12.0883C24.4532 10.3701 24.3385 8.57306 23.7553 6.91889V6.91994ZM12.5155 26.0831C14.2781 25.725 15.9281 24.9036 17.2601 23.7158L12.1909 20.9147C11.8176 22.633 11.9323 24.43 12.5155 26.0831ZM12.3965 6.9861C11.8349 8.64657 11.7419 10.4446 12.1368 12.1587L17.1703 9.29774C15.8232 8.12459 14.1634 7.32324 12.3965 6.9861ZM11.7938 5.50838C11.8274 5.43801 11.8598 5.36765 11.8944 5.29833C12.0113 5.06412 12.1336 4.83411 12.2656 4.6125V4.61145C12.4116 4.36674 12.5674 4.13043 12.7308 3.89937C12.7817 3.82796 12.8358 3.75864 12.8877 3.68827C13.0057 3.52968 13.1258 3.37424 13.2513 3.223C13.314 3.14738 13.3779 3.07281 13.4417 2.9993C13.5694 2.85331 13.7014 2.71152 13.8366 2.57289C13.8994 2.50882 13.96 2.4437 14.0238 2.38069C14.2088 2.20004 14.3993 2.0257 14.5962 1.85871C14.6124 1.84505 14.6276 1.83035 14.6427 1.8167C14.8569 1.6371 15.0798 1.46801 15.3092 1.30522C15.3785 1.25585 15.451 1.20964 15.5213 1.16238C15.6858 1.05105 15.8524 0.942874 16.0233 0.839948C16.1088 0.788485 16.1943 0.739122 16.2809 0.68976C16.3512 0.64985 16.4193 0.606789 16.4897 0.567929C15.7485 0.403038 14.9965 0.321117 14.2478 0.321117C12.509 0.321117 10.7832 0.761178 9.23382 1.62975C6.9757 2.89532 5.34621 4.92233 4.62344 7.31379C4.65482 7.29488 4.68728 7.28018 4.71865 7.26232C4.93181 7.13839 5.14712 7.01971 5.36893 6.91048C5.44035 6.87478 5.51392 6.84327 5.58641 6.80966C5.74871 6.73404 5.91209 6.66157 6.07764 6.59331C6.17285 6.5534 6.26807 6.51349 6.36545 6.47673C6.57211 6.39796 6.78094 6.32444 6.99301 6.25827C7.10445 6.22256 7.2159 6.1921 7.32843 6.15955C7.47125 6.11858 7.61515 6.08183 7.76014 6.04612C7.90296 6.01146 8.04579 5.9789 8.19078 5.94949C8.37147 5.91273 8.55216 5.88017 8.73394 5.85287C8.84646 5.83606 8.95899 5.82031 9.0726 5.80666C9.27602 5.78145 9.47943 5.7615 9.68501 5.74679C9.78564 5.74049 9.88518 5.73524 9.98581 5.73104C10.186 5.72263 10.3872 5.71948 10.5896 5.72053C10.6707 5.72053 10.7519 5.72053 10.833 5.72369C11.0916 5.73209 11.3502 5.74784 11.6088 5.77305C11.6283 5.77515 11.6467 5.77515 11.6661 5.77725C11.7062 5.68693 11.7516 5.59975 11.7938 5.51048V5.50838ZM24.478 27.4915C24.4445 27.5619 24.412 27.6333 24.3774 27.7037C24.2606 27.9379 24.1383 28.1679 24.0052 28.3916C23.8591 28.6363 23.7023 28.8726 23.54 29.1037C23.4891 29.1761 23.435 29.2454 23.3831 29.3158C23.2662 29.4734 23.1461 29.6288 23.0206 29.78C22.9578 29.8556 22.894 29.9313 22.8291 30.0058C22.7014 30.1518 22.5705 30.2926 22.4352 30.4312C22.3725 30.4953 22.3108 30.5614 22.247 30.6244C22.063 30.804 21.8737 30.9773 21.6778 31.1433C21.6605 31.158 21.6443 31.1737 21.627 31.1884C21.4128 31.368 21.1899 31.5371 20.9616 31.6999C20.8923 31.7493 20.8209 31.7944 20.7506 31.8428C20.5861 31.9541 20.4195 32.0623 20.2474 32.1652C20.1631 32.2166 20.0765 32.266 19.9899 32.3154C19.9196 32.3553 19.8514 32.3983 19.78 32.4372C22.2383 32.9844 24.8189 32.6178 27.0359 31.3754C29.294 30.1098 30.9235 28.0828 31.6463 25.6913C31.5824 25.7292 31.5153 25.7607 31.4515 25.7964C31.3238 25.8688 31.1951 25.9382 31.0652 26.0054C30.9224 26.0799 30.7774 26.1503 30.6313 26.2186C30.495 26.2816 30.3576 26.3425 30.2191 26.4003C30.0741 26.4601 29.9291 26.5169 29.782 26.5715C29.6359 26.625 29.4898 26.6775 29.3416 26.7248C29.1988 26.771 29.0538 26.813 28.9088 26.854C28.753 26.8981 28.5972 26.9401 28.4392 26.9769C28.2986 27.0105 28.1568 27.0388 28.014 27.0661C27.8495 27.0987 27.6862 27.1292 27.5195 27.1544C27.3789 27.1754 27.2382 27.1922 27.0976 27.2079C26.9298 27.2268 26.7621 27.2457 26.5923 27.2573C26.4462 27.2678 26.3001 27.2709 26.1541 27.2751C26.0394 27.2783 25.9247 27.2898 25.81 27.2898C25.7559 27.2898 25.7007 27.2846 25.6466 27.2835C25.5373 27.2825 25.428 27.2762 25.3188 27.272C25.137 27.2646 24.9563 27.2531 24.7745 27.2373C24.7183 27.2321 24.662 27.2321 24.6057 27.2268C24.5668 27.3161 24.5213 27.4033 24.4791 27.4925L24.478 27.4915ZM5.15794 16.3356C5.11142 16.2726 5.06489 16.2095 5.02053 16.1455C4.87013 15.9302 4.72515 15.7128 4.59314 15.4901C4.44707 15.2454 4.31507 14.9954 4.19064 14.7434C4.15169 14.6646 4.11706 14.5837 4.0792 14.5039C3.99696 14.3264 3.91906 14.1489 3.84657 13.9683C3.80978 13.8769 3.77515 13.7855 3.74161 13.6931C3.67561 13.5135 3.61502 13.3329 3.55984 13.1501C3.53387 13.065 3.50574 12.98 3.48193 12.8949C3.41377 12.6512 3.35426 12.4055 3.30449 12.1587C3.30016 12.1366 3.29367 12.1146 3.28934 12.0925C3.23632 11.8226 3.19737 11.5516 3.16599 11.2785C3.15625 11.1956 3.15193 11.1105 3.14435 11.0275C3.12704 10.8343 3.11406 10.641 3.10756 10.4457C3.10432 10.348 3.10324 10.2503 3.10215 10.1527C3.10215 10.0739 3.09674 9.99512 3.09783 9.91635C1.3807 11.7092 0.417725 14.0617 0.417725 16.5467C0.417725 19.0316 1.41208 21.4609 3.1833 23.2642C3.18114 23.1791 3.18547 23.0951 3.18547 23.01C3.18547 22.9102 3.18547 22.8105 3.18763 22.7107C3.19304 22.5101 3.20494 22.3105 3.22117 22.111C3.22766 22.028 3.23199 21.944 3.24065 21.861C3.27094 21.5817 3.3099 21.3023 3.36183 21.0261C3.36832 20.9914 3.37806 20.9578 3.38455 20.9231C3.43216 20.6816 3.48951 20.4411 3.55443 20.2027C3.57931 20.1123 3.60745 20.0241 3.6345 19.9348C3.68968 19.75 3.75027 19.5662 3.81627 19.3834C3.85089 19.2889 3.88552 19.1944 3.92231 19.1009C3.9948 18.9171 4.0727 18.7365 4.15602 18.5569C4.19389 18.475 4.22851 18.393 4.26854 18.3122C4.39406 18.057 4.52714 17.8038 4.67429 17.557C4.79656 17.3522 4.92856 17.1506 5.06597 16.9521C5.10601 16.8943 5.14712 16.8387 5.18716 16.7819C5.23585 16.7137 5.28237 16.6444 5.33323 16.5771C5.27264 16.4984 5.21745 16.4164 5.15903 16.3366L5.15794 16.3356ZM11.0959 12.6103C10.6155 10.7051 10.6761 8.69384 11.268 6.83067C11.1576 6.82226 11.0483 6.81386 10.938 6.80861C10.9196 6.80861 10.9001 6.80651 10.8817 6.80546C8.79778 6.72459 6.73116 7.27808 4.99564 8.36825C4.95777 8.39241 4.92099 8.41762 4.88312 8.44177C4.78574 8.50479 4.68944 8.56886 4.59422 8.63502C4.54337 8.67073 4.49252 8.70854 4.44166 8.7453C4.39406 8.77996 4.34861 8.81462 4.30209 8.85033C4.28694 8.9606 4.27612 9.07088 4.2653 9.18116C4.2534 9.30614 4.23933 9.43112 4.23176 9.55506C4.2231 9.70104 4.2231 9.84598 4.22094 9.99197C4.21985 10.1148 4.21553 10.2388 4.21877 10.3617C4.2231 10.5076 4.235 10.6526 4.24582 10.7975C4.25448 10.9183 4.26097 11.0401 4.27395 11.1599C4.29018 11.3069 4.31615 11.4518 4.33996 11.5968C4.35835 11.7134 4.3735 11.831 4.3973 11.9476C4.4276 12.0967 4.46655 12.2427 4.50442 12.3897C4.53255 12.5011 4.55636 12.6134 4.58773 12.7227C4.63209 12.8749 4.68728 13.0251 4.74029 13.1764C4.776 13.2782 4.8063 13.3822 4.84633 13.4841C4.91017 13.649 4.98591 13.8107 5.0584 13.9735C5.09627 14.0575 5.12873 14.1437 5.16985 14.2266C5.28886 14.4714 5.4187 14.7119 5.55936 14.9492C5.70327 15.1908 5.86124 15.4271 6.02895 15.6592C6.03977 15.675 6.05275 15.6897 6.06357 15.7044C7.41282 14.2592 9.16349 13.1816 11.0959 12.6113V12.6103ZM31.1139 16.6654C31.1604 16.7284 31.207 16.7903 31.2513 16.8544C31.4017 17.0697 31.5467 17.2882 31.6787 17.5108C31.8248 17.7555 31.9568 18.0055 32.0812 18.2576C32.1202 18.3363 32.1548 18.4172 32.1927 18.497C32.2749 18.6745 32.3528 18.852 32.4253 19.0327C32.4621 19.124 32.4967 19.2154 32.5303 19.3078C32.5963 19.4874 32.6568 19.6691 32.7131 19.8508C32.7391 19.9359 32.7672 20.0199 32.791 20.106C32.8592 20.3507 32.9187 20.5965 32.9695 20.8444C32.9739 20.8664 32.9804 20.8874 32.9847 20.9095C33.0377 21.1794 33.0767 21.4514 33.108 21.7245C33.1178 21.8075 33.1221 21.8904 33.1297 21.9744C33.147 22.1687 33.16 22.3631 33.1665 22.5573C33.1697 22.654 33.1708 22.7516 33.1708 22.8493C33.1708 22.9281 33.1762 23.0069 33.1751 23.0867C34.8922 21.2939 35.8552 18.9423 35.8552 16.4564C35.8552 13.9252 34.8609 11.5422 33.0896 9.73885C33.0918 9.82392 33.0875 9.90899 33.0875 9.99407C33.0875 10.0938 33.0875 10.1926 33.0853 10.2913C33.0799 10.4929 33.068 10.6935 33.0507 10.8941C33.0442 10.9761 33.0399 11.059 33.0312 11.141C33.0009 11.4214 32.962 11.7007 32.91 11.977C32.9035 12.0095 32.8949 12.0421 32.8884 12.0746C32.8397 12.3183 32.7834 12.5609 32.7174 12.8014C32.6936 12.8897 32.6655 12.9768 32.6385 13.065C32.5822 13.2509 32.5227 13.4358 32.4556 13.6196C32.4221 13.7141 32.3863 13.8076 32.3496 13.9011C32.2771 14.0849 32.1981 14.2665 32.1158 14.4461C32.0791 14.527 32.0434 14.6089 32.0044 14.6898C31.8789 14.9461 31.7458 15.1981 31.5987 15.4449C31.4764 15.6508 31.3444 15.8514 31.207 16.051C31.168 16.1077 31.1269 16.1633 31.0869 16.22C31.0382 16.2883 30.9917 16.3587 30.9408 16.4259C31.0014 16.5047 31.0566 16.5855 31.115 16.6664L31.1139 16.6654ZM25.1759 20.3907C25.6563 22.2958 25.5957 24.3071 25.0039 26.1713C25.1088 26.1797 25.2149 26.1871 25.3198 26.1923C25.3447 26.1934 25.3696 26.1955 25.3945 26.1965C27.4763 26.2763 29.5407 25.7239 31.2751 24.6337C31.3141 24.6096 31.352 24.5833 31.3909 24.5581C31.4872 24.4961 31.5824 24.4321 31.6766 24.367C31.7285 24.3302 31.7793 24.2934 31.8313 24.2556C31.8778 24.222 31.9243 24.1863 31.9698 24.1517C31.9838 24.0424 31.9957 23.9332 32.0055 23.825C32.0174 23.699 32.0325 23.573 32.039 23.4469C32.0477 23.302 32.0477 23.1581 32.0498 23.0142C32.0509 22.8903 32.0553 22.7653 32.052 22.6414C32.0477 22.4964 32.0358 22.3515 32.025 22.2076C32.0163 22.0858 32.0098 21.965 31.9968 21.8432C31.9806 21.6961 31.9546 21.5512 31.9308 21.4063C31.9124 21.2897 31.8973 21.172 31.8735 21.0555C31.8432 20.9063 31.8042 20.7603 31.7664 20.6133C31.7382 20.502 31.7144 20.3907 31.683 20.2804C31.6387 20.127 31.5835 19.9768 31.5305 19.8256C31.4948 19.7237 31.4645 19.6208 31.4255 19.52C31.3606 19.353 31.2849 19.1891 31.2113 19.0253C31.1734 18.9434 31.1421 18.8594 31.102 18.7774C30.9852 18.538 30.8575 18.3017 30.7201 18.0685C30.7168 18.0643 30.7157 18.0591 30.7125 18.0549C30.5686 17.8122 30.4095 17.5759 30.2429 17.3438C30.2321 17.3281 30.2191 17.3144 30.2083 17.2987C28.859 18.7438 27.1084 19.8214 25.1759 20.3917V20.3907ZM11.5839 27.3182C11.4238 27.334 11.2647 27.3455 11.1046 27.355C10.9531 27.3634 10.8027 27.3697 10.6523 27.3728C10.5896 27.3728 10.5257 27.3802 10.463 27.3802C10.3883 27.3802 10.3158 27.3728 10.2422 27.3718C10.054 27.3686 9.86787 27.3613 9.68068 27.3487C9.56058 27.3403 9.44156 27.3308 9.32254 27.3182C9.13428 27.2993 8.94709 27.2772 8.75991 27.2499C8.63656 27.2321 8.51321 27.2111 8.39094 27.189C8.21566 27.1575 8.04254 27.1218 7.86942 27.0819C7.73742 27.0514 7.60542 27.0189 7.47449 26.9832C7.31544 26.9401 7.15747 26.8939 7.00058 26.8445C6.86209 26.8004 6.72467 26.7542 6.58834 26.7059C6.44011 26.6523 6.29296 26.5956 6.14797 26.5358C6.01056 26.479 5.87314 26.4213 5.73789 26.3593C5.59507 26.2942 5.45549 26.2259 5.31483 26.1545C5.18283 26.0873 5.05083 26.018 4.92099 25.9455C4.86148 25.9119 4.7998 25.8846 4.74138 25.8499C5.48254 28.1899 7.09904 30.176 9.31713 31.4184C11.5753 32.684 14.1991 33.0401 16.6931 32.4519C16.6163 32.412 16.5438 32.3647 16.467 32.3227C16.3782 32.2734 16.2895 32.2229 16.2008 32.1715C16.0244 32.0665 15.8524 31.9572 15.6836 31.8428C15.6122 31.7955 15.5397 31.7503 15.4694 31.701C15.2346 31.5361 15.0063 31.3638 14.7855 31.1821C14.7563 31.158 14.7304 31.1317 14.7011 31.1076C14.5107 30.9469 14.3257 30.7809 14.1461 30.6076C14.0779 30.5415 14.0119 30.4722 13.9459 30.4049C13.8096 30.2663 13.6765 30.1245 13.5477 29.9796C13.4796 29.9029 13.4125 29.8252 13.3476 29.7475C13.221 29.5952 13.0987 29.4397 12.9797 29.2812C12.9256 29.2087 12.8693 29.1373 12.8174 29.0637C12.6518 28.8306 12.4928 28.5922 12.3467 28.3454C12.2245 28.1395 12.1119 27.9284 12.0026 27.7142C11.9713 27.6522 11.941 27.5892 11.9107 27.5262C11.8739 27.4516 11.8349 27.377 11.8003 27.3014C11.7278 27.3098 11.6553 27.3109 11.5828 27.3182H11.5839ZM12.9418 27.1103C12.9461 27.1197 12.9505 27.1292 12.9548 27.1386C13.0673 27.3655 13.1863 27.5892 13.3151 27.8045C13.4568 28.0429 13.6094 28.2739 13.7706 28.4987C13.8247 28.5743 13.8864 28.6447 13.9427 28.7193C14.0541 28.8652 14.1634 29.0112 14.2824 29.1509C14.3549 29.236 14.435 29.3148 14.5096 29.3977C14.6211 29.5185 14.7304 29.6424 14.8472 29.758C14.9316 29.8409 15.0225 29.9187 15.1101 29.9995C15.2259 30.1067 15.3406 30.2148 15.4618 30.3157C15.5559 30.3944 15.6565 30.4669 15.7539 30.5425C15.8751 30.637 15.9963 30.7326 16.1218 30.8219C16.2246 30.8944 16.3328 30.9605 16.4388 31.0298C16.5665 31.1128 16.692 31.1968 16.8229 31.2735C16.9333 31.3386 17.048 31.3974 17.1616 31.4584C17.2947 31.5298 17.4267 31.6022 17.5619 31.6674C17.6788 31.7241 17.8 31.7734 17.919 31.8249C18.0229 31.8701 18.1267 31.9142 18.2328 31.9562C18.3356 31.9142 18.4373 31.8701 18.539 31.8249C18.6569 31.7724 18.777 31.722 18.8928 31.6653C19.027 31.6001 19.1557 31.5277 19.2856 31.4573C19.397 31.3964 19.5095 31.3376 19.6177 31.2735C19.7454 31.1968 19.8687 31.1139 19.9932 31.033C20.097 30.9647 20.202 30.8996 20.3026 30.8282C20.426 30.74 20.5428 30.6454 20.6608 30.553C20.7549 30.4795 20.8523 30.4081 20.9432 30.3304C21.0611 30.2306 21.1736 30.1235 21.2862 30.0174C21.3706 29.9386 21.4582 29.863 21.5404 29.7821C21.6551 29.6677 21.7622 29.5458 21.8704 29.4261C21.944 29.3452 22.0198 29.2685 22.0901 29.1856C22.2059 29.049 22.313 28.9041 22.4212 28.7613C22.4774 28.6878 22.5369 28.6174 22.591 28.5418C22.749 28.3191 22.8994 28.0901 23.0401 27.8538C23.184 27.6112 23.316 27.3602 23.4393 27.104C23.448 27.0871 23.4545 27.0693 23.4621 27.0525C21.4982 26.6408 19.6621 25.7081 18.1862 24.3691C16.7266 25.725 14.9013 26.6807 12.9418 27.1145V27.1103ZM11.1457 20.4747C9.20569 19.9264 7.44095 18.8688 6.07439 17.4394C6.0679 17.4478 6.06141 17.4562 6.056 17.4646C5.90885 17.6726 5.77035 17.8847 5.6416 18.1C5.49985 18.3384 5.37001 18.5821 5.24991 18.83C5.20988 18.9129 5.17742 18.999 5.14063 19.0831C5.06597 19.2501 4.99023 19.416 4.92532 19.5861C4.88636 19.6891 4.85499 19.7951 4.81928 19.9002C4.76626 20.0546 4.71108 20.2079 4.66672 20.3644C4.63426 20.4778 4.61045 20.5934 4.58232 20.7068C4.54554 20.857 4.5055 21.0072 4.47629 21.1584C4.45248 21.2781 4.43842 21.3989 4.42002 21.5197C4.3973 21.6688 4.37133 21.8169 4.3551 21.966C4.34212 22.0889 4.33671 22.2129 4.32805 22.3368C4.31832 22.4849 4.30641 22.633 4.30317 22.7811C4.301 22.906 4.30533 23.0321 4.30858 23.1571C4.31182 23.3041 4.31291 23.4522 4.32264 23.5992C4.3313 23.7252 4.34645 23.8513 4.36051 23.9784C4.37242 24.0886 4.38432 24.1979 4.40055 24.3081C4.55527 24.4226 4.71108 24.5361 4.87122 24.6411C4.90368 24.6631 4.93722 24.6831 4.97076 24.7051C5.18175 24.8396 5.3949 24.9677 5.61346 25.0853C5.63402 25.0958 5.65458 25.1063 5.67514 25.1168C6.14797 25.3679 6.63703 25.58 7.14124 25.7523C7.1499 25.7554 7.15747 25.7586 7.16613 25.7607C7.42148 25.8468 7.68007 25.9224 7.943 25.9886C7.95165 25.9907 7.96031 25.9928 7.96897 25.9949C8.23406 26.061 8.50347 26.1157 8.77505 26.1608C8.77722 26.1608 8.7783 26.1608 8.78046 26.1608C9.33228 26.2511 9.896 26.2963 10.4673 26.2963C10.7075 26.2963 10.9499 26.2847 11.1922 26.2679C11.2312 26.2648 11.2701 26.2627 11.3091 26.2595C11.3372 26.2574 11.3653 26.2522 11.3935 26.2501C10.7789 24.3943 10.6934 22.383 11.15 20.4736L11.1457 20.4747ZM24.7723 5.67537C24.8524 5.66802 24.9314 5.65962 25.0104 5.65437C25.2776 5.63546 25.5449 5.62286 25.81 5.62286C26.101 5.62286 26.3899 5.63651 26.6777 5.65752C26.7675 5.66382 26.8563 5.67537 26.9461 5.68377C27.1452 5.70268 27.3432 5.72684 27.5401 5.75624C27.6396 5.77095 27.7392 5.78775 27.8387 5.80561C28.0313 5.83921 28.2228 5.88017 28.4133 5.92324C28.5031 5.94424 28.5918 5.96315 28.6805 5.9852C28.9315 6.05032 29.1804 6.12174 29.426 6.20366C29.4487 6.21101 29.4715 6.21626 29.4931 6.22361C29.7593 6.31393 30.0222 6.41686 30.2808 6.52714C30.3598 6.56075 30.4377 6.59856 30.5156 6.63427C30.6974 6.71619 30.8759 6.80231 31.0533 6.89473C31.1421 6.94094 31.2297 6.98821 31.3163 7.03652C31.3866 7.07538 31.4591 7.11109 31.5294 7.151C30.7882 4.811 29.1717 2.82495 26.9547 1.58249C24.6966 0.316915 22.0728 -0.0391245 19.5788 0.549025C19.6556 0.589985 19.7292 0.636196 19.8049 0.678207C19.8936 0.727569 19.9824 0.777982 20.07 0.829445C20.2464 0.934472 20.4184 1.04475 20.5883 1.15818C20.6597 1.20544 20.7322 1.2506 20.8014 1.29996C21.0362 1.46486 21.2645 1.6371 21.4852 1.8188C21.5134 1.8419 21.5393 1.86816 21.5686 1.89126C21.759 2.05196 21.9451 2.21895 22.1247 2.39224C22.1929 2.45841 22.2589 2.52667 22.3249 2.59494C22.4612 2.73358 22.5954 2.87536 22.7241 3.02135C22.7923 3.09802 22.8583 3.17469 22.9243 3.25346C23.0509 3.40575 23.1732 3.56224 23.2922 3.72083C23.3463 3.7933 23.4025 3.86366 23.4545 3.93823C23.62 4.17139 23.7791 4.4098 23.9251 4.65661C24.0474 4.86142 24.1599 5.07357 24.2692 5.28782C24.3006 5.34979 24.3309 5.41281 24.3612 5.47582C24.398 5.55039 24.4369 5.62496 24.4716 5.70058C24.5722 5.68903 24.6728 5.68378 24.7734 5.67432L24.7723 5.67537ZM17.7329 1.18233C17.615 1.23485 17.497 1.28526 17.3823 1.34093C17.2482 1.40709 17.1183 1.47956 16.9874 1.55098C16.877 1.61084 16.7645 1.66966 16.6574 1.73372C16.5286 1.81039 16.4053 1.89337 16.2809 1.97529C16.1781 2.0425 16.0731 2.10762 15.9736 2.17904C15.8502 2.26726 15.7323 2.36178 15.6133 2.45526C15.5191 2.52878 15.4228 2.60019 15.3319 2.67686C15.214 2.77664 15.1015 2.88377 14.9889 2.98984C14.9046 3.06861 14.8169 3.14423 14.7347 3.2251C14.62 3.33958 14.5129 3.46246 14.4036 3.58324C14.3311 3.66306 14.2554 3.73973 14.185 3.8227C14.0682 3.96134 13.9589 4.10733 13.8496 4.25331C13.7955 4.32473 13.7371 4.393 13.6851 4.46652C13.5261 4.68917 13.3768 4.91813 13.235 5.15549C13.235 5.15549 13.235 5.15759 13.234 5.15759C13.09 5.39915 12.9591 5.64912 12.8358 5.90538C12.8271 5.92219 12.8206 5.94004 12.8131 5.95684C14.7769 6.36855 16.613 7.30118 18.0889 8.64027C19.5485 7.28438 21.3738 6.32864 23.3333 5.89488C23.329 5.88543 23.3246 5.87597 23.3203 5.86652C23.2078 5.63966 23.0888 5.41596 22.96 5.20065C22.9589 5.19855 22.9568 5.19645 22.9557 5.19435C22.815 4.95804 22.6646 4.72908 22.5045 4.50643C22.4504 4.43081 22.3887 4.36044 22.3325 4.28587C22.221 4.14093 22.1117 3.9939 21.9927 3.85526C21.9191 3.77019 21.8401 3.69142 21.7644 3.60845C21.654 3.48767 21.5448 3.36479 21.4279 3.24926C21.3424 3.16524 21.2515 3.08752 21.1639 3.00665C21.0481 2.90057 20.9345 2.79239 20.8144 2.69157C20.7192 2.61175 20.6197 2.53928 20.5212 2.46366C20.4 2.36913 20.2799 2.27356 20.1544 2.18534C20.0516 2.11287 19.9434 2.0467 19.8374 1.97739C19.7097 1.89442 19.5842 1.81039 19.4533 1.73372C19.3429 1.66861 19.2282 1.61084 19.1157 1.54993C18.9826 1.47851 18.8495 1.40604 18.7132 1.33987C18.5963 1.28421 18.4762 1.2338 18.3572 1.18233C18.2533 1.13717 18.1484 1.09201 18.0423 1.05105C17.9385 1.09306 17.8368 1.13822 17.7351 1.18339L17.7329 1.18233ZM25.1272 12.5305C27.0673 13.0787 28.832 14.1363 30.1986 15.5657C30.204 15.5573 30.2115 15.5489 30.2169 15.5405C30.363 15.3326 30.5026 15.1204 30.6313 14.9051C30.7731 14.6667 30.9029 14.423 31.023 14.1752C31.0631 14.0933 31.0944 14.0071 31.1323 13.9242C31.207 13.7561 31.2838 13.5891 31.3487 13.419C31.3877 13.3171 31.418 13.211 31.4537 13.1081C31.5067 12.9527 31.5619 12.7983 31.6073 12.6407C31.6398 12.5273 31.6636 12.4128 31.6917 12.2983C31.7285 12.1482 31.7685 11.998 31.7977 11.8457C31.8215 11.727 31.8356 11.6062 31.854 11.4865C31.8778 11.3374 31.9027 11.1882 31.9189 11.038C31.9319 10.9151 31.9373 10.7923 31.9449 10.6683C31.9546 10.5192 31.9676 10.3711 31.9698 10.222C31.9719 10.097 31.9665 9.97201 31.9644 9.84703C31.9611 9.69894 31.96 9.5519 31.9503 9.40382C31.9416 9.27779 31.9265 9.15175 31.9124 9.02572C31.9005 8.91544 31.8886 8.80516 31.8724 8.69594C31.7826 8.62977 31.6917 8.56676 31.6008 8.50374C31.4948 8.43127 31.3909 8.35565 31.2827 8.28738C31.1572 8.20756 31.0274 8.13405 30.8986 8.06053C30.7893 7.99751 30.6822 7.93239 30.5708 7.87463C30.4377 7.80426 30.3013 7.7423 30.1661 7.67823C30.0546 7.62572 29.9443 7.57005 29.8307 7.52174C29.6911 7.46188 29.5472 7.41041 29.4044 7.3579C29.2918 7.31589 29.1793 7.26968 29.0657 7.23187C28.9175 7.18251 28.766 7.14259 28.6145 7.09953C28.502 7.06803 28.3916 7.03232 28.278 7.00396C28.119 6.9651 27.9567 6.93569 27.7944 6.90418C27.6862 6.88318 27.5801 6.85692 27.4708 6.84012C27.2891 6.81071 27.104 6.79286 26.9201 6.7729C26.8292 6.76345 26.7383 6.74769 26.6464 6.74034C26.3694 6.71829 26.0891 6.70673 25.8078 6.70673C25.5676 6.70673 25.3242 6.71829 25.0818 6.73509C25.0428 6.73824 25.005 6.73929 24.966 6.74244C24.9379 6.74454 24.9098 6.74979 24.8816 6.7519C25.4962 8.60772 25.5817 10.619 25.1262 12.5284L25.1272 12.5305Z" fill="url(#paint0_radial_2020_3639)"/>
<mask id="mask0_2020_3639" style="mask-type:luminance" maskUnits="userSpaceOnUse" x="0" y="0" width="36" height="33">
<path d="M25.045 19.2921L25.0093 13.6301C26.7351 14.1552 28.2932 15.132 29.4942 16.4343C28.3094 17.7513 26.7643 18.7459 25.045 19.2921ZM6.77769 16.5687C7.97762 17.8711 9.5357 18.8478 11.2626 19.3729L11.2269 13.711C9.50756 14.256 7.96139 15.2517 6.77769 16.5677V16.5687ZM23.8743 26.0169C24.4369 24.3565 24.5289 22.5584 24.134 20.8444L19.1005 23.7053C20.4476 24.8784 22.1074 25.6798 23.8743 26.0169ZM23.7553 6.91994C21.9927 7.27808 20.3427 8.09939 19.0107 9.28724L24.0799 12.0883C24.4532 10.3701 24.3385 8.57306 23.7553 6.91889V6.91994ZM12.5155 26.0831C14.2781 25.725 15.9281 24.9036 17.2601 23.7158L12.1909 20.9147C11.8176 22.633 11.9323 24.43 12.5155 26.0831ZM12.3965 6.9861C11.8349 8.64657 11.7419 10.4446 12.1368 12.1587L17.1703 9.29774C15.8232 8.12459 14.1634 7.32324 12.3965 6.9861ZM11.7938 5.50838C11.8274 5.43801 11.8598 5.36765 11.8944 5.29833C12.0113 5.06412 12.1336 4.83411 12.2656 4.6125V4.61145C12.4116 4.36674 12.5674 4.13043 12.7308 3.89937C12.7817 3.82796 12.8358 3.75864 12.8877 3.68827C13.0057 3.52968 13.1258 3.37424 13.2513 3.223C13.314 3.14738 13.3779 3.07281 13.4417 2.9993C13.5694 2.85331 13.7014 2.71152 13.8366 2.57289C13.8994 2.50882 13.96 2.4437 14.0238 2.38069C14.2088 2.20004 14.3993 2.0257 14.5962 1.85871C14.6124 1.84505 14.6276 1.83035 14.6427 1.8167C14.8569 1.6371 15.0798 1.46801 15.3092 1.30522C15.3785 1.25585 15.451 1.20964 15.5213 1.16238C15.6858 1.05105 15.8524 0.942874 16.0233 0.839948C16.1088 0.788485 16.1943 0.739122 16.2809 0.68976C16.3512 0.64985 16.4193 0.606789 16.4897 0.567929C15.7485 0.403038 14.9965 0.321117 14.2478 0.321117C12.509 0.321117 10.7832 0.761178 9.23382 1.62975C6.9757 2.89532 5.34621 4.92233 4.62344 7.31379C4.65482 7.29488 4.68728 7.28018 4.71865 7.26232C4.93181 7.13839 5.14712 7.01971 5.36893 6.91048C5.44035 6.87478 5.51392 6.84327 5.58641 6.80966C5.74871 6.73404 5.91209 6.66157 6.07764 6.59331C6.17285 6.5534 6.26807 6.51349 6.36545 6.47673C6.57211 6.39796 6.78094 6.32444 6.99301 6.25827C7.10445 6.22256 7.2159 6.1921 7.32843 6.15955C7.47125 6.11858 7.61515 6.08183 7.76014 6.04612C7.90296 6.01146 8.04579 5.9789 8.19078 5.94949C8.37147 5.91273 8.55216 5.88017 8.73394 5.85287C8.84646 5.83606 8.95899 5.82031 9.0726 5.80666C9.27602 5.78145 9.47943 5.7615 9.68501 5.74679C9.78564 5.74049 9.88518 5.73524 9.98581 5.73104C10.186 5.72263 10.3872 5.71948 10.5896 5.72053C10.6707 5.72053 10.7519 5.72053 10.833 5.72369C11.0916 5.73209 11.3502 5.74784 11.6088 5.77305C11.6283 5.77515 11.6467 5.77515 11.6661 5.77725C11.7062 5.68693 11.7516 5.59975 11.7938 5.51048V5.50838ZM24.478 27.4915C24.4445 27.5619 24.412 27.6333 24.3774 27.7037C24.2606 27.9379 24.1383 28.1679 24.0052 28.3916C23.8591 28.6363 23.7023 28.8726 23.54 29.1037C23.4891 29.1761 23.435 29.2454 23.3831 29.3158C23.2662 29.4734 23.1461 29.6288 23.0206 29.78C22.9578 29.8556 22.894 29.9313 22.8291 30.0058C22.7014 30.1518 22.5705 30.2926 22.4352 30.4312C22.3725 30.4953 22.3108 30.5614 22.247 30.6244C22.063 30.804 21.8737 30.9773 21.6778 31.1433C21.6605 31.158 21.6443 31.1737 21.627 31.1884C21.4128 31.368 21.1899 31.5371 20.9616 31.6999C20.8923 31.7493 20.8209 31.7944 20.7506 31.8428C20.5861 31.9541 20.4195 32.0623 20.2474 32.1652C20.1631 32.2166 20.0765 32.266 19.9899 32.3154C19.9196 32.3553 19.8514 32.3983 19.78 32.4372C22.2383 32.9844 24.8189 32.6178 27.0359 31.3754C29.294 30.1098 30.9235 28.0828 31.6463 25.6913C31.5824 25.7292 31.5153 25.7607 31.4515 25.7964C31.3238 25.8688 31.1951 25.9382 31.0652 26.0054C30.9224 26.0799 30.7774 26.1503 30.6313 26.2186C30.495 26.2816 30.3576 26.3425 30.2191 26.4003C30.0741 26.4601 29.9291 26.5169 29.782 26.5715C29.6359 26.625 29.4898 26.6775 29.3416 26.7248C29.1988 26.771 29.0538 26.813 28.9088 26.854C28.753 26.8981 28.5972 26.9401 28.4392 26.9769C28.2986 27.0105 28.1568 27.0388 28.014 27.0661C27.8495 27.0987 27.6862 27.1292 27.5195 27.1544C27.3789 27.1754 27.2382 27.1922 27.0976 27.2079C26.9298 27.2268 26.7621 27.2457 26.5923 27.2573C26.4462 27.2678 26.3001 27.2709 26.1541 27.2751C26.0394 27.2783 25.9247 27.2898 25.81 27.2898C25.7559 27.2898 25.7007 27.2846 25.6466 27.2835C25.5373 27.2825 25.428 27.2762 25.3188 27.272C25.137 27.2646 24.9563 27.2531 24.7745 27.2373C24.7183 27.2321 24.662 27.2321 24.6057 27.2268C24.5668 27.3161 24.5213 27.4033 24.4791 27.4925L24.478 27.4915ZM5.15794 16.3356C5.11142 16.2726 5.06489 16.2095 5.02053 16.1455C4.87013 15.9302 4.72515 15.7128 4.59314 15.4901C4.44707 15.2454 4.31507 14.9954 4.19064 14.7434C4.15169 14.6646 4.11706 14.5837 4.0792 14.5039C3.99696 14.3264 3.91906 14.1489 3.84657 13.9683C3.80978 13.8769 3.77515 13.7855 3.74161 13.6931C3.67561 13.5135 3.61502 13.3329 3.55984 13.1501C3.53387 13.065 3.50574 12.98 3.48193 12.8949C3.41377 12.6512 3.35426 12.4055 3.30449 12.1587C3.30016 12.1366 3.29367 12.1146 3.28934 12.0925C3.23632 11.8226 3.19737 11.5516 3.16599 11.2785C3.15625 11.1956 3.15193 11.1105 3.14435 11.0275C3.12704 10.8343 3.11406 10.641 3.10756 10.4457C3.10432 10.348 3.10324 10.2503 3.10215 10.1527C3.10215 10.0739 3.09674 9.99512 3.09783 9.91635C1.3807 11.7092 0.417725 14.0617 0.417725 16.5467C0.417725 19.0316 1.41208 21.4609 3.1833 23.2642C3.18114 23.1791 3.18547 23.0951 3.18547 23.01C3.18547 22.9102 3.18547 22.8105 3.18763 22.7107C3.19304 22.5101 3.20494 22.3105 3.22117 22.111C3.22766 22.028 3.23199 21.944 3.24065 21.861C3.27094 21.5817 3.3099 21.3023 3.36183 21.0261C3.36832 20.9914 3.37806 20.9578 3.38455 20.9231C3.43216 20.6816 3.48951 20.4411 3.55443 20.2027C3.57931 20.1123 3.60745 20.0241 3.6345 19.9348C3.68968 19.75 3.75027 19.5662 3.81627 19.3834C3.85089 19.2889 3.88552 19.1944 3.92231 19.1009C3.9948 18.9171 4.0727 18.7365 4.15602 18.5569C4.19389 18.475 4.22851 18.393 4.26854 18.3122C4.39406 18.057 4.52714 17.8038 4.67429 17.557C4.79656 17.3522 4.92856 17.1506 5.06597 16.9521C5.10601 16.8943 5.14712 16.8387 5.18716 16.7819C5.23585 16.7137 5.28237 16.6444 5.33323 16.5771C5.27264 16.4984 5.21745 16.4164 5.15903 16.3366L5.15794 16.3356ZM11.0959 12.6103C10.6155 10.7051 10.6761 8.69384 11.268 6.83067C11.1576 6.82226 11.0483 6.81386 10.938 6.80861C10.9196 6.80861 10.9001 6.80651 10.8817 6.80546C8.79778 6.72459 6.73116 7.27808 4.99564 8.36825C4.95777 8.39241 4.92099 8.41762 4.88312 8.44177C4.78574 8.50479 4.68944 8.56886 4.59422 8.63502C4.54337 8.67073 4.49252 8.70854 4.44166 8.7453C4.39406 8.77996 4.34861 8.81462 4.30209 8.85033C4.28694 8.9606 4.27612 9.07088 4.2653 9.18116C4.2534 9.30614 4.23933 9.43112 4.23176 9.55506C4.2231 9.70104 4.2231 9.84598 4.22094 9.99197C4.21985 10.1148 4.21553 10.2388 4.21877 10.3617C4.2231 10.5076 4.235 10.6526 4.24582 10.7975C4.25448 10.9183 4.26097 11.0401 4.27395 11.1599C4.29018 11.3069 4.31615 11.4518 4.33996 11.5968C4.35835 11.7134 4.3735 11.831 4.3973 11.9476C4.4276 12.0967 4.46655 12.2427 4.50442 12.3897C4.53255 12.5011 4.55636 12.6134 4.58773 12.7227C4.63209 12.8749 4.68728 13.0251 4.74029 13.1764C4.776 13.2782 4.8063 13.3822 4.84633 13.4841C4.91017 13.649 4.98591 13.8107 5.0584 13.9735C5.09627 14.0575 5.12873 14.1437 5.16985 14.2266C5.28886 14.4714 5.4187 14.7119 5.55936 14.9492C5.70327 15.1908 5.86124 15.4271 6.02895 15.6592C6.03977 15.675 6.05275 15.6897 6.06357 15.7044C7.41282 14.2592 9.16349 13.1816 11.0959 12.6113V12.6103ZM31.1139 16.6654C31.1604 16.7284 31.207 16.7903 31.2513 16.8544C31.4017 17.0697 31.5467 17.2882 31.6787 17.5108C31.8248 17.7555 31.9568 18.0055 32.0812 18.2576C32.1202 18.3363 32.1548 18.4172 32.1927 18.497C32.2749 18.6745 32.3528 18.852 32.4253 19.0327C32.4621 19.124 32.4967 19.2154 32.5303 19.3078C32.5963 19.4874 32.6568 19.6691 32.7131 19.8508C32.7391 19.9359 32.7672 20.0199 32.791 20.106C32.8592 20.3507 32.9187 20.5965 32.9695 20.8444C32.9739 20.8664 32.9804 20.8874 32.9847 20.9095C33.0377 21.1794 33.0767 21.4514 33.108 21.7245C33.1178 21.8075 33.1221 21.8904 33.1297 21.9744C33.147 22.1687 33.16 22.3631 33.1665 22.5573C33.1697 22.654 33.1708 22.7516 33.1708 22.8493C33.1708 22.9281 33.1762 23.0069 33.1751 23.0867C34.8922 21.2939 35.8552 18.9423 35.8552 16.4564C35.8552 13.9252 34.8609 11.5422 33.0896 9.73885C33.0918 9.82392 33.0875 9.90899 33.0875 9.99407C33.0875 10.0938 33.0875 10.1926 33.0853 10.2913C33.0799 10.4929 33.068 10.6935 33.0507 10.8941C33.0442 10.9761 33.0399 11.059 33.0312 11.141C33.0009 11.4214 32.962 11.7007 32.91 11.977C32.9035 12.0095 32.8949 12.0421 32.8884 12.0746C32.8397 12.3183 32.7834 12.5609 32.7174 12.8014C32.6936 12.8897 32.6655 12.9768 32.6385 13.065C32.5822 13.2509 32.5227 13.4358 32.4556 13.6196C32.4221 13.7141 32.3863 13.8076 32.3496 13.9011C32.2771 14.0849 32.1981 14.2665 32.1158 14.4461C32.0791 14.527 32.0434 14.6089 32.0044 14.6898C31.8789 14.9461 31.7458 15.1981 31.5987 15.4449C31.4764 15.6508 31.3444 15.8514 31.207 16.051C31.168 16.1077 31.1269 16.1633 31.0869 16.22C31.0382 16.2883 30.9917 16.3587 30.9408 16.4259C31.0014 16.5047 31.0566 16.5855 31.115 16.6664L31.1139 16.6654ZM25.1759 20.3907C25.6563 22.2958 25.5957 24.3071 25.0039 26.1713C25.1088 26.1797 25.2149 26.1871 25.3198 26.1923C25.3447 26.1934 25.3696 26.1955 25.3945 26.1965C27.4763 26.2763 29.5407 25.7239 31.2751 24.6337C31.3141 24.6096 31.352 24.5833 31.3909 24.5581C31.4872 24.4961 31.5824 24.4321 31.6766 24.367C31.7285 24.3302 31.7793 24.2934 31.8313 24.2556C31.8778 24.222 31.9243 24.1863 31.9698 24.1517C31.9838 24.0424 31.9957 23.9332 32.0055 23.825C32.0174 23.699 32.0325 23.573 32.039 23.4469C32.0477 23.302 32.0477 23.1581 32.0498 23.0142C32.0509 22.8903 32.0553 22.7653 32.052 22.6414C32.0477 22.4964 32.0358 22.3515 32.025 22.2076C32.0163 22.0858 32.0098 21.965 31.9968 21.8432C31.9806 21.6961 31.9546 21.5512 31.9308 21.4063C31.9124 21.2897 31.8973 21.172 31.8735 21.0555C31.8432 20.9063 31.8042 20.7603 31.7664 20.6133C31.7382 20.502 31.7144 20.3907 31.683 20.2804C31.6387 20.127 31.5835 19.9768 31.5305 19.8256C31.4948 19.7237 31.4645 19.6208 31.4255 19.52C31.3606 19.353 31.2849 19.1891 31.2113 19.0253C31.1734 18.9434 31.1421 18.8594 31.102 18.7774C30.9852 18.538 30.8575 18.3017 30.7201 18.0685C30.7168 18.0643 30.7157 18.0591 30.7125 18.0549C30.5686 17.8122 30.4095 17.5759 30.2429 17.3438C30.2321 17.3281 30.2191 17.3144 30.2083 17.2987C28.859 18.7438 27.1084 19.8214 25.1759 20.3917V20.3907ZM11.5839 27.3182C11.4238 27.334 11.2647 27.3455 11.1046 27.355C10.9531 27.3634 10.8027 27.3697 10.6523 27.3728C10.5896 27.3728 10.5257 27.3802 10.463 27.3802C10.3883 27.3802 10.3158 27.3728 10.2422 27.3718C10.054 27.3686 9.86787 27.3613 9.68068 27.3487C9.56058 27.3403 9.44156 27.3308 9.32254 27.3182C9.13428 27.2993 8.94709 27.2772 8.75991 27.2499C8.63656 27.2321 8.51321 27.2111 8.39094 27.189C8.21566 27.1575 8.04254 27.1218 7.86942 27.0819C7.73742 27.0514 7.60542 27.0189 7.47449 26.9832C7.31544 26.9401 7.15747 26.8939 7.00058 26.8445C6.86209 26.8004 6.72467 26.7542 6.58834 26.7059C6.44011 26.6523 6.29296 26.5956 6.14797 26.5358C6.01056 26.479 5.87314 26.4213 5.73789 26.3593C5.59507 26.2942 5.45549 26.2259 5.31483 26.1545C5.18283 26.0873 5.05083 26.018 4.92099 25.9455C4.86148 25.9119 4.7998 25.8846 4.74138 25.8499C5.48254 28.1899 7.09904 30.176 9.31713 31.4184C11.5753 32.684 14.1991 33.0401 16.6931 32.4519C16.6163 32.412 16.5438 32.3647 16.467 32.3227C16.3782 32.2734 16.2895 32.2229 16.2008 32.1715C16.0244 32.0665 15.8524 31.9572 15.6836 31.8428C15.6122 31.7955 15.5397 31.7503 15.4694 31.701C15.2346 31.5361 15.0063 31.3638 14.7855 31.1821C14.7563 31.158 14.7304 31.1317 14.7011 31.1076C14.5107 30.9469 14.3257 30.7809 14.1461 30.6076C14.0779 30.5415 14.0119 30.4722 13.9459 30.4049C13.8096 30.2663 13.6765 30.1245 13.5477 29.9796C13.4796 29.9029 13.4125 29.8252 13.3476 29.7475C13.221 29.5952 13.0987 29.4397 12.9797 29.2812C12.9256 29.2087 12.8693 29.1373 12.8174 29.0637C12.6518 28.8306 12.4928 28.5922 12.3467 28.3454C12.2245 28.1395 12.1119 27.9284 12.0026 27.7142C11.9713 27.6522 11.941 27.5892 11.9107 27.5262C11.8739 27.4516 11.8349 27.377 11.8003 27.3014C11.7278 27.3098 11.6553 27.3109 11.5828 27.3182H11.5839ZM12.9418 27.1103C12.9461 27.1197 12.9505 27.1292 12.9548 27.1386C13.0673 27.3655 13.1863 27.5892 13.3151 27.8045C13.4568 28.0429 13.6094 28.2739 13.7706 28.4987C13.8247 28.5743 13.8864 28.6447 13.9427 28.7193C14.0541 28.8652 14.1634 29.0112 14.2824 29.1509C14.3549 29.236 14.435 29.3148 14.5096 29.3977C14.6211 29.5185 14.7304 29.6424 14.8472 29.758C14.9316 29.8409 15.0225 29.9187 15.1101 29.9995C15.2259 30.1067 15.3406 30.2148 15.4618 30.3157C15.5559 30.3944 15.6565 30.4669 15.7539 30.5425C15.8751 30.637 15.9963 30.7326 16.1218 30.8219C16.2246 30.8944 16.3328 30.9605 16.4388 31.0298C16.5665 31.1128 16.692 31.1968 16.8229 31.2735C16.9333 31.3386 17.048 31.3974 17.1616 31.4584C17.2947 31.5298 17.4267 31.6022 17.5619 31.6674C17.6788 31.7241 17.8 31.7734 17.919 31.8249C18.0229 31.8701 18.1267 31.9142 18.2328 31.9562C18.3356 31.9142 18.4373 31.8701 18.539 31.8249C18.6569 31.7724 18.777 31.722 18.8928 31.6653C19.027 31.6001 19.1557 31.5277 19.2856 31.4573C19.397 31.3964 19.5095 31.3376 19.6177 31.2735C19.7454 31.1968 19.8687 31.1139 19.9932 31.033C20.097 30.9647 20.202 30.8996 20.3026 30.8282C20.426 30.74 20.5428 30.6454 20.6608 30.553C20.7549 30.4795 20.8523 30.4081 20.9432 30.3304C21.0611 30.2306 21.1736 30.1235 21.2862 30.0174C21.3706 29.9386 21.4582 29.863 21.5404 29.7821C21.6551 29.6677 21.7622 29.5458 21.8704 29.4261C21.944 29.3452 22.0198 29.2685 22.0901 29.1856C22.2059 29.049 22.313 28.9041 22.4212 28.7613C22.4774 28.6878 22.5369 28.6174 22.591 28.5418C22.749 28.3191 22.8994 28.0901 23.0401 27.8538C23.184 27.6112 23.316 27.3602 23.4393 27.104C23.448 27.0871 23.4545 27.0693 23.4621 27.0525C21.4982 26.6408 19.6621 25.7081 18.1862 24.3691C16.7266 25.725 14.9013 26.6807 12.9418 27.1145V27.1103ZM11.1457 20.4747C9.20569 19.9264 7.44095 18.8688 6.07439 17.4394C6.0679 17.4478 6.06141 17.4562 6.056 17.4646C5.90885 17.6726 5.77035 17.8847 5.6416 18.1C5.49985 18.3384 5.37001 18.5821 5.24991 18.83C5.20988 18.9129 5.17742 18.999 5.14063 19.0831C5.06597 19.2501 4.99023 19.416 4.92532 19.5861C4.88636 19.6891 4.85499 19.7951 4.81928 19.9002C4.76626 20.0546 4.71108 20.2079 4.66672 20.3644C4.63426 20.4778 4.61045 20.5934 4.58232 20.7068C4.54554 20.857 4.5055 21.0072 4.47629 21.1584C4.45248 21.2781 4.43842 21.3989 4.42002 21.5197C4.3973 21.6688 4.37133 21.8169 4.3551 21.966C4.34212 22.0889 4.33671 22.2129 4.32805 22.3368C4.31832 22.4849 4.30641 22.633 4.30317 22.7811C4.301 22.906 4.30533 23.0321 4.30858 23.1571C4.31182 23.3041 4.31291 23.4522 4.32264 23.5992C4.3313 23.7252 4.34645 23.8513 4.36051 23.9784C4.37242 24.0886 4.38432 24.1979 4.40055 24.3081C4.55527 24.4226 4.71108 24.5361 4.87122 24.6411C4.90368 24.6631 4.93722 24.6831 4.97076 24.7051C5.18175 24.8396 5.3949 24.9677 5.61346 25.0853C5.63402 25.0958 5.65458 25.1063 5.67514 25.1168C6.14797 25.3679 6.63703 25.58 7.14124 25.7523C7.1499 25.7554 7.15747 25.7586 7.16613 25.7607C7.42148 25.8468 7.68007 25.9224 7.943 25.9886C7.95165 25.9907 7.96031 25.9928 7.96897 25.9949C8.23406 26.061 8.50347 26.1157 8.77505 26.1608C8.77722 26.1608 8.7783 26.1608 8.78046 26.1608C9.33228 26.2511 9.896 26.2963 10.4673 26.2963C10.7075 26.2963 10.9499 26.2847 11.1922 26.2679C11.2312 26.2648 11.2701 26.2627 11.3091 26.2595C11.3372 26.2574 11.3653 26.2522 11.3935 26.2501C10.7789 24.3943 10.6934 22.383 11.15 20.4736L11.1457 20.4747ZM24.7723 5.67537C24.8524 5.66802 24.9314 5.65962 25.0104 5.65437C25.2776 5.63546 25.5449 5.62286 25.81 5.62286C26.101 5.62286 26.3899 5.63651 26.6777 5.65752C26.7675 5.66382 26.8563 5.67537 26.9461 5.68377C27.1452 5.70268 27.3432 5.72684 27.5401 5.75624C27.6396 5.77095 27.7392 5.78775 27.8387 5.80561C28.0313 5.83921 28.2228 5.88017 28.4133 5.92324C28.5031 5.94424 28.5918 5.96315 28.6805 5.9852C28.9315 6.05032 29.1804 6.12174 29.426 6.20366C29.4487 6.21101 29.4715 6.21626 29.4931 6.22361C29.7593 6.31393 30.0222 6.41686 30.2808 6.52714C30.3598 6.56075 30.4377 6.59856 30.5156 6.63427C30.6974 6.71619 30.8759 6.80231 31.0533 6.89473C31.1421 6.94094 31.2297 6.98821 31.3163 7.03652C31.3866 7.07538 31.4591 7.11109 31.5294 7.151C30.7882 4.811 29.1717 2.82495 26.9547 1.58249C24.6966 0.316915 22.0728 -0.0391245 19.5788 0.549025C19.6556 0.589985 19.7292 0.636196 19.8049 0.678207C19.8936 0.727569 19.9824 0.777982 20.07 0.829445C20.2464 0.934472 20.4184 1.04475 20.5883 1.15818C20.6597 1.20544 20.7322 1.2506 20.8014 1.29996C21.0362 1.46486 21.2645 1.6371 21.4852 1.8188C21.5134 1.8419 21.5393 1.86816 21.5686 1.89126C21.759 2.05196 21.9451 2.21895 22.1247 2.39224C22.1929 2.45841 22.2589 2.52667 22.3249 2.59494C22.4612 2.73358 22.5954 2.87536 22.7241 3.02135C22.7923 3.09802 22.8583 3.17469 22.9243 3.25346C23.0509 3.40575 23.1732 3.56224 23.2922 3.72083C23.3463 3.7933 23.4025 3.86366 23.4545 3.93823C23.62 4.17139 23.7791 4.4098 23.9251 4.65661C24.0474 4.86142 24.1599 5.07357 24.2692 5.28782C24.3006 5.34979 24.3309 5.41281 24.3612 5.47582C24.398 5.55039 24.4369 5.62496 24.4716 5.70058C24.5722 5.68903 24.6728 5.68378 24.7734 5.67432L24.7723 5.67537ZM17.7329 1.18233C17.615 1.23485 17.497 1.28526 17.3823 1.34093C17.2482 1.40709 17.1183 1.47956 16.9874 1.55098C16.877 1.61084 16.7645 1.66966 16.6574 1.73372C16.5286 1.81039 16.4053 1.89337 16.2809 1.97529C16.1781 2.0425 16.0731 2.10762 15.9736 2.17904C15.8502 2.26726 15.7323 2.36178 15.6133 2.45526C15.5191 2.52878 15.4228 2.60019 15.3319 2.67686C15.214 2.77664 15.1015 2.88377 14.9889 2.98984C14.9046 3.06861 14.8169 3.14423 14.7347 3.2251C14.62 3.33958 14.5129 3.46246 14.4036 3.58324C14.3311 3.66306 14.2554 3.73973 14.185 3.8227C14.0682 3.96134 13.9589 4.10733 13.8496 4.25331C13.7955 4.32473 13.7371 4.393 13.6851 4.46652C13.5261 4.68917 13.3768 4.91813 13.235 5.15549C13.235 5.15549 13.235 5.15759 13.234 5.15759C13.09 5.39915 12.9591 5.64912 12.8358 5.90538C12.8271 5.92219 12.8206 5.94004 12.8131 5.95684C14.7769 6.36855 16.613 7.30118 18.0889 8.64027C19.5485 7.28438 21.3738 6.32864 23.3333 5.89488C23.329 5.88543 23.3246 5.87597 23.3203 5.86652C23.2078 5.63966 23.0888 5.41596 22.96 5.20065C22.9589 5.19855 22.9568 5.19645 22.9557 5.19435C22.815 4.95804 22.6646 4.72908 22.5045 4.50643C22.4504 4.43081 22.3887 4.36044 22.3325 4.28587C22.221 4.14093 22.1117 3.9939 21.9927 3.85526C21.9191 3.77019 21.8401 3.69142 21.7644 3.60845C21.654 3.48767 21.5448 3.36479 21.4279 3.24926C21.3424 3.16524 21.2515 3.08752 21.1639 3.00665C21.0481 2.90057 20.9345 2.79239 20.8144 2.69157C20.7192 2.61175 20.6197 2.53928 20.5212 2.46366C20.4 2.36913 20.2799 2.27356 20.1544 2.18534C20.0516 2.11287 19.9434 2.0467 19.8374 1.97739C19.7097 1.89442 19.5842 1.81039 19.4533 1.73372C19.3429 1.66861 19.2282 1.61084 19.1157 1.54993C18.9826 1.47851 18.8495 1.40604 18.7132 1.33987C18.5963 1.28421 18.4762 1.2338 18.3572 1.18233C18.2533 1.13717 18.1484 1.09201 18.0423 1.05105C17.9385 1.09306 17.8368 1.13822 17.7351 1.18339L17.7329 1.18233ZM25.1272 12.5305C27.0673 13.0787 28.832 14.1363 30.1986 15.5657C30.204 15.5573 30.2115 15.5489 30.2169 15.5405C30.363 15.3326 30.5026 15.1204 30.6313 14.9051C30.7731 14.6667 30.9029 14.423 31.023 14.1752C31.0631 14.0933 31.0944 14.0071 31.1323 13.9242C31.207 13.7561 31.2838 13.5891 31.3487 13.419C31.3877 13.3171 31.418 13.211 31.4537 13.1081C31.5067 12.9527 31.5619 12.7983 31.6073 12.6407C31.6398 12.5273 31.6636 12.4128 31.6917 12.2983C31.7285 12.1482 31.7685 11.998 31.7977 11.8457C31.8215 11.727 31.8356 11.6062 31.854 11.4865C31.8778 11.3374 31.9027 11.1882 31.9189 11.038C31.9319 10.9151 31.9373 10.7923 31.9449 10.6683C31.9546 10.5192 31.9676 10.3711 31.9698 10.222C31.9719 10.097 31.9665 9.97201 31.9644 9.84703C31.9611 9.69894 31.96 9.5519 31.9503 9.40382C31.9416 9.27779 31.9265 9.15175 31.9124 9.02572C31.9005 8.91544 31.8886 8.80516 31.8724 8.69594C31.7826 8.62977 31.6917 8.56676 31.6008 8.50374C31.4948 8.43127 31.3909 8.35565 31.2827 8.28738C31.1572 8.20756 31.0274 8.13405 30.8986 8.06053C30.7893 7.99751 30.6822 7.93239 30.5708 7.87463C30.4377 7.80426 30.3013 7.7423 30.1661 7.67823C30.0546 7.62572 29.9443 7.57005 29.8307 7.52174C29.6911 7.46188 29.5472 7.41041 29.4044 7.3579C29.2918 7.31589 29.1793 7.26968 29.0657 7.23187C28.9175 7.18251 28.766 7.14259 28.6145 7.09953C28.502 7.06803 28.3916 7.03232 28.278 7.00396C28.119 6.9651 27.9567 6.93569 27.7944 6.90418C27.6862 6.88318 27.5801 6.85692 27.4708 6.84012C27.2891 6.81071 27.104 6.79286 26.9201 6.7729C26.8292 6.76345 26.7383 6.74769 26.6464 6.74034C26.3694 6.71829 26.0891 6.70673 25.8078 6.70673C25.5676 6.70673 25.3242 6.71829 25.0818 6.73509C25.0428 6.73824 25.005 6.73929 24.966 6.74244C24.9379 6.74454 24.9098 6.74979 24.8816 6.7519C25.4962 8.60772 25.5817 10.619 25.1262 12.5284L25.1272 12.5305Z" fill="white"/>
</mask>
<g mask="url(#mask0_2020_3639)">
<path d="M18.137 33.9084C28.0388 33.9084 36.0657 26.1168 36.0657 16.5054C36.0657 6.89409 28.0388 -0.897461 18.137 -0.897461C8.23531 -0.897461 0.208374 6.89409 0.208374 16.5054C0.208374 26.1168 8.23531 33.9084 18.137 33.9084Z" fill="url(#paint1_radial_2020_3639)"/>
</g>
<defs>
<radialGradient id="paint0_radial_2020_3639" cx="0" cy="0" r="1" gradientUnits="userSpaceOnUse" gradientTransform="translate(18.3158 16.495) rotate(-27.8677) scale(17.3689 16.5751)">
<stop offset="0.42" stop-color="#5B5FED"/>
<stop offset="0.46" stop-color="#625EEB"/>
<stop offset="0.52" stop-color="#755DE7"/>
<stop offset="0.6" stop-color="#955BE0"/>
<stop offset="0.68" stop-color="#C158D6"/>
<stop offset="0.77" stop-color="#FF54C9"/>
<stop offset="0.83" stop-color="#FF55C6"/>
<stop offset="0.85" stop-color="#FF5BBE"/>
<stop offset="0.88" stop-color="#FF64B0"/>
<stop offset="0.89" stop-color="#FF729D"/>
<stop offset="0.91" stop-color="#FF8384"/>
<stop offset="0.93" stop-color="#FF9965"/>
<stop offset="0.94" stop-color="#FFB340"/>
<stop offset="0.96" stop-color="#FFE000"/>
<stop offset="1" stop-color="#FFF399"/>
</radialGradient>
<radialGradient id="paint1_radial_2020_3639" cx="0" cy="0" r="1" gradientUnits="userSpaceOnUse" gradientTransform="translate(18.3185 16.4996) rotate(-29.2671) scale(17.81 17.5411)">
<stop offset="0.42" stop-color="#5B5FED"/>
<stop offset="0.46" stop-color="#625EEB"/>
<stop offset="0.52" stop-color="#755DE7"/>
<stop offset="0.6" stop-color="#955BE0"/>
<stop offset="0.68" stop-color="#C158D6"/>
<stop offset="0.77" stop-color="#FF54C9"/>
<stop offset="0.83" stop-color="#FF55C6"/>
<stop offset="0.85" stop-color="#FF5BBE"/>
<stop offset="0.88" stop-color="#FF64B0"/>
<stop offset="0.89" stop-color="#FF729D"/>
<stop offset="0.91" stop-color="#FF8384"/>
<stop offset="0.93" stop-color="#FF9965"/>
<stop offset="0.94" stop-color="#FFB340"/>
<stop offset="0.96" stop-color="#FFE000"/>
<stop offset="1" stop-color="#FFF399"/>
</radialGradient>
</defs>
</svg>
